<?xml version="1.0" encoding="UTF-8"?>
<svg enable-background="new 0 0 415.985 312.477" viewBox="0 0 415.985 312.477" xmlns="http://www.w3.org/2000/svg">
 <path d="m87.634,286.275c13.006,1.889 47.568,6.046 38.053-9.719-4.775-7.913-15.93-2.331-15.93-17.229 0-8.431.546-18.831-5.309-23.416-3.218-2.519-19.829-3.533-24.337-3.533-13.777,0-9.886-1.272-11.947,11.487-2.334,14.452 3.601,38.718 19.47,42.41" fill="#594730" fill-rule="evenodd"/>
 <path d="m353.123,182.898c16.719,0 63.731.717 62.835-23.857-.431-11.805-17.82-15.37-21.683-26.948-3.248-9.735.43-21.703-3.539-33.575-5.164-15.439 8.091-60.802-26.107-43.736-15.936,7.952-50.529-17.35-63.718-24.74-18.7-10.479-49.831-36.135-72.125-28.715-22.67,7.545-46.144,26.142-69.47,21.646-24.206-4.663-41.493-16.411-68.143-13.253-25.217,2.988-49.066,16.289-62.832,36.227-29.801,43.158-30.54,95.722-26.549,147.554 1.86,24.163 6.977,47.946 14.16,70.685 9.551,30.232 25.31,19.382 53.983,22.089 15.911,1.503 28.684,4.889 15.044-11.487-5.236-6.285-8.031-2.139-12.39-11.486-2.207-4.731-3.783-16.207-1.77-21.206 5.676-14.097 17.959.715 31.859,2.652 11.844,1.649 25.863.954 36.284-5.302 5.174,22.008 13.735,55.665 41.15,55.665 11.976,0 24.631-.756 36.727-1.769 4.932-.412 11.518,7.891 9.734-2.65-1.472-8.686-13.11-6.32-16.814-12.369-10.199-16.653 6.722-55.745 29.203-50.363 12.745,3.051 9.29,14.832 12.39,28.273 2.5,10.845 5.109,23.535 8.85,32.693 5.133,12.558 3.809,13.281 19.47,15.02 9.245,1.025 16.447,1.526 24.779,3.533 5.896,1.42 24.223,10.5 25.664,0 .921-6.718-14.662-12.556-15.93-21.204-2.07-14.132 7.669-42.397 11.504-56.549 2.18-8.043 4.872-20.026 8.852-27.39 4.397-8.139 13.037-11.948 18.582-19.438" fill="#a38458" fill-rule="evenodd"/>
 <path d="m9.756,83.939c11.823-52.656 64.605-84.248 115.931-71.568 25.614,6.328 41.412,17.08 66.373,3.534 26.001-14.111 45.733-20.195 72.567-6.185 20.489,10.696 38.353,23.867 58.406,32.692 7.684,3.381 17.183,9.235 25.667,11.486 11.304,3 23.129-5.891 32.742-1.767 10.099,4.332 9.143,15.989 8.849,26.506-.362,12.983 2.01,15.862 4.426,28.274 2.601,13.356-3.668,18.483 3.541,30.041 4.965,7.961 21.802,14.077 16.813,24.74-3.909-5.938-11.277-9.928-15.928-16.788 .554.567 3.636,6.587 5.309,8.836-8.598,4.248-7.65-2.773-15.044-2.651-6.821.112-2.972,7.015-10.619,4.417-7.583-2.576-7.709-16.693-20.354-15.02 6.698-10.712 14.51-2.388 22.125,2.651-10.381-13.162-7.32-39.25-32.746-26.507 3.89-3.117 6.695-5.73 10.621-7.952-3.726.641-7.773-.62-11.505,0l4.426-4.417c-3.568,1.24-7.01,1.089-10.621,2.65 .845-7.505 9.462-6.791 16.814-5.301-9.961-12.641-9.78-9.529-21.238-7.068-11.427,2.455-21.278,5.065-31.859,10.602 2.121-9.357 8.45-24.311 18.583-26.506-14.669-.905-30.084-28.279-41.591-10.603-5.424,8.331 1.943,14.849-5.311,22.089-6.657,6.643-13.462,13.114-21.24,18.554 .602-10.142 6.592-15.674 11.507-23.856 3.374-5.619 6.503-19.028 12.389-24.74 14.051-13.636 32.092,9.283 49.556,0-23.715-2.049-72.491-37.007-87.61.883 4.693-.071 8.715,2.585 13.275,2.651-7.452,9.919-11.992,21.636-26.55,18.555 2.154-5.018 6.792-15.615 7.964-17.671-6.924,6.347-16.364,22.48-25.663,26.507-15.566,6.743-.498-16.293 6.195-22.973 20.436-20.396 36.604-35.187 67.256-34.459-25.183-12.563-47.468-30.368-72.566-5.301-11.147,11.132-22.069,10.225-34.513,20.322-10.931,8.869-19.137,25.677-23.01,38.876-6.818-13.978-.826-35.447 9.735-45.062-13.337.646-26.776,7.375-39.823,7.952-13.95.616-22.184-9.91-38.054-1.767-26.762,13.73-39.889,43.327-52.213,69.801-6.219-32.542 21.91-61.2 43.363-79.521-21.446,4.666-55.914,26.196-66.375,45.064" fill="#d9a966" fill-rule="evenodd"/>
 <path d="m409.761,166.994c-6.041,21.746-49.376,11.977-63.716,22.973-18.042,13.836-22.004,45.665-26.55,68.035-1.876,9.229-8.154,28.961-4.425,36.224 4.328,8.432 28.729,19.2.884,16.789-11.355-.983-21.656-5.753-33.628-7.068-17.651-1.941-18.67-2.604-23.009-17.671-3.313-11.505-6.345-23.34-8.85-35.342-2.932-14.031.267-26.596-18.584-22.974-31.262,6.007-11.862,40.935-24.78,51.247-5.969,4.765-32.406.812-37.169-2.65-5.667-4.121-13.274-21.191-13.274-28.717 0-25.609-9.525-48.297-2.655-74.661 6.04-23.174 19.694-51.155 38.938-64.5-.003,2.99 1.146,5.726.885,8.835l14.159-15.904c-.288,3.484 1.198,7.122.885,10.603l20.355-19.438c-2.023,3.837-2.533,8.461-4.426,12.369l16.816-11.485c.294,5.596.589,11.191.884,16.787 2.794-3.554 7.172-6.006 9.734-9.719-3.541,21.55-2.131,36.072 6.193,56.548 9.302,22.878 20.255,24.352 38.939,35.343-12.132-9.558-25.291-23.608-30.53-39.321-3.77-11.305-7.303-41.002 5.752-46.386-.207,7.938 2.174,15.127 5.309,22.089 3.822-8.864 6.215-17.802 11.506-25.624l-8.851.884c13.832-13.534-4.165-25.003 7.965-37.11 1.549-1.545 12.562,4.224 14.159,6.185 6.149,7.547 3.689,6.36.887,14.137-4.124,11.443-12.287,14.545-14.16,28.274-1.391,10.188 0,21.511 0,31.809-4.139-4.475-4.905-11.776-10.619-16.789-.43,10.375 7.616,24.917 16.813,31.808-.883-11.689-.328-26.786 4.425-37.109-.083,14.167 5.158,39.011 21.239,22.973 7.077-7.06 14.159-42.182 14.159-8.394 0,7.583 6.13,16.429 13.276,18.996 10.802,3.881 11.893-1.578 20.354,4.418 9.42,6.677 5.148,14.289 19.47,12.37 7.556-1.01 10.643-10.263 21.24-8.834m-271.684,70.686c-9.583,8.256-25.315,8.8-37.169,7.067-11.984-1.752-23.603-15.808-30.089-4.418-7.276,12.778 6.052,27.643 11.505,33.574 12.03,13.089 12.095,14.264-7.965,13.253-11.352-.571-23.811.674-35.398,0-16.114-.936-17.312-7-22.125-21.204-6.599-19.478-15.044-46.344-15.044-68.476 0-28.73-9.217-77.999 14.16-97.633 1.018,21.184 16.385,49.856 25.664,68.035 1.973-17.397 9.018-33.477 16.815-48.597 10.488-20.34 17.489-20.682 28.319,0l28.318-34.459c.885,19.438 1.771,38.876 2.656,58.315 10.569-11.139 21.117-24.195 32.743-33.575-13.371,28.434-27.663,97.453-12.39,128.118" fill="#735c3d" fill-rule="evenodd"/>
 <path d="m299.14 303.95c9.077 4.747 38.771 11.831 29.202-2.651-5.384-8.148-12.237-2.403-14.158-14.138-0.906-5.538 3.342-16.78 4.426-22.971 5.62-32.071 11.959-58.442 33.628-80.405-76.177-3.176-52.614 68.769-53.098 120.16" fill="#57452e" fill-rule="evenodd"/>
 <path d="m388.524,156.391c-.64,13.526 25.02,11.088 23.892,4.418-.349-2.073-20.82-.582-23.892-4.418" fill-rule="evenodd"/>
 <path d="m388.524,156.391c-.64,13.526 25.02,11.088 23.892,4.418-.349-2.073-20.82-.582-23.892-4.418" fill="none" stroke="#000" stroke-linecap="square" stroke-miterlimit="10" stroke-width=".7495"/>
 <path d="m388.524,156.391c-.64,13.526 25.02,11.088 23.892,4.418-.349-2.073-20.82-.582-23.892-4.418" fill="none" stroke="#000" stroke-linecap="square" stroke-miterlimit="10" stroke-width=".7495"/>
 <path d="m388.524,126.35c-3.794-5.065-2.954-9.851 2.654-13.253-.482,4.23-.97,9.395-2.654,13.253" fill-rule="evenodd"/>
 <path d="m388.524,126.35c-3.794-5.065-2.954-9.851 2.654-13.253-.482,4.23-.97,9.395-2.654,13.253" fill="none" stroke="#000" stroke-linecap="square" stroke-miterlimit="10" stroke-width=".7495"/>
 <path d="m388.524,126.35c-3.794-5.065-2.954-9.851 2.654-13.253-.482,4.23-.97,9.395-2.654,13.253" fill="none" stroke="#000" stroke-linecap="square" stroke-miterlimit="10" stroke-width=".7495"/>
 <path d="m368.17 101.61c-0.607-6.778-4.264-13.52-9.735-15.021 1.486 6.297 4.642 12.069 9.735 15.021" fill="#655136" fill-rule="evenodd"/>
 <path d="m351.36 123.7c5.666-5.336 11.528-4.65 14.157 2.651-5.151 1.605-9.921 0.425-14.157-2.651" fill-rule="evenodd"/>
 <path d="m351.36 123.7c5.666-5.336 11.528-4.65 14.157 2.651-5.151 1.605-9.921 0.425-14.157-2.651" fill="none" stroke="#000" stroke-linecap="square" stroke-miterlimit="10" stroke-width=".7495"/>
 <path d="m351.36 123.7c5.666-5.336 11.528-4.65 14.157 2.651-5.151 1.605-9.921 0.425-14.157-2.651" fill="none" stroke="#000" stroke-linecap="square" stroke-miterlimit="10" stroke-width=".7495"/>
 <path d="m368.17 68.035c13.903-23.137 17.096 1.682 15.045 15.021-4.216-5.217-9.355-10.874-15.045-15.021" fill="#655136" fill-rule="evenodd"/>
 <path d="m322.15 75.987c12.035-7.979 31.505-13.023 46.02-7.952" fill="none" stroke="#977a52" stroke-linecap="square" stroke-miterlimit="10" stroke-width="2.2485"/>
 <path d="m322.15 75.987c12.035-7.979 31.505-13.023 46.02-7.952" fill="none" stroke="#977a52" stroke-linecap="square" stroke-miterlimit="10" stroke-width="2.2485"/>
</svg>
